<svg xmlns="http://www.w3.org/2000/svg" width="36" height="47.524" viewBox="0 0 36 47.524">
  <g id="arrow_up" data-name="arrow up" transform="translate(-25 -292)" fill="#e74252">
    <path d="M 53.5 339.023193359375 L 32.50039672851563 339.023193359375 L 32.50039672851563 337.4996032714844 L 53.5 337.4996032714844 L 53.5 339.023193359375 Z M 53.5 335.8633117675781 L 32.50039672851563 335.8633117675781 L 32.50039672851563 332.5001220703125 L 53.5 332.5001220703125 L 53.5 335.8633117675781 Z M 53.5 330.6990966796875 L 32.50039672851563 330.6990966796875 L 32.50039672851563 324 L 32.50039672851563 323.5 L 32.00039672851563 323.5 L 25.85511779785156 323.5 L 43.00019836425781 293.0194702148438 L 60.14527893066406 323.5 L 54 323.5 L 53.5 323.5 L 53.5 324 L 53.5 330.6990966796875 Z" stroke="none"/>
    <path d="M 53 338.523193359375 L 53 337.9996032714844 L 33.00039672851563 337.9996032714844 L 33.00039672851563 338.523193359375 L 53 338.523193359375 M 53 335.3633117675781 L 53 333.0001220703125 L 33.00039672851563 333.0001220703125 L 33.00039672851563 335.3633117675781 L 53 335.3633117675781 M 53 330.1990966796875 L 53 324 L 53 323 L 54 323 L 59.29035949707031 323 L 43.00019836425781 294.0393676757813 L 26.71003913879395 323 L 32.00039672851563 323 L 33.00039672851563 323 L 33.00039672851563 324 L 33.00039672851563 330.1990966796875 L 53 330.1990966796875 M 54 339.523193359375 L 32.00039672851563 339.523193359375 L 32.00039672851563 336.9996032714844 L 54 336.9996032714844 L 54 339.523193359375 Z M 54 336.3633117675781 L 32.00039672851563 336.3633117675781 L 32.00039672851563 332.0001220703125 L 54 332.0001220703125 L 54 336.3633117675781 Z M 54 331.1990966796875 L 32.00039672851563 331.1990966796875 L 32.00039672851563 324 L 25.00019836425781 324 L 43.00019836425781 291.9996032714844 L 61.00019836425781 324 L 54 324 L 54 331.1990966796875 Z" stroke="none" fill="#ece8e1"/>
  </g>
</svg>
