<svg xmlns="http://www.w3.org/2000/svg" width="36" height="36" viewBox="0 0 36 36"><g transform="translate(-4 -4)"><path d="M-1064-4693h-.033l.005,0v0a19.979,19.979,0,0,0,2.665-.2V-4707.7h5.176l.813-5.257h-5.989v-2.875a5.892,5.892,0,0,1,.613-2.879,2.327,2.327,0,0,1,2.144-1.242h3.283v-4.588l-.025,0a27.854,27.854,0,0,0-4.077-.245c-5.067,0-7.636,2.8-7.636,8.334v3.5h-4.949v5.258h4.948v14.438c.324.055.652.1.975.139v0c-.31-.034-.629-.076-.975-.127v-.014a18.013,18.013,0,0,1-10.651-6.079,17.936,17.936,0,0,1-3.147-5.34A17.931,17.931,0,0,1-1082-4711a17.882,17.882,0,0,1,5.272-12.728A17.882,17.882,0,0,1-1064-4729a17.88,17.88,0,0,1,12.728,5.272A17.882,17.882,0,0,1-1046-4711a17.881,17.881,0,0,1-5.272,12.728A17.88,17.88,0,0,1-1064-4693Z" transform="translate(1086 4733)" fill="#ece8e1"/></g></svg>