<svg xmlns="http://www.w3.org/2000/svg" width="36" height="36" viewBox="0 0 36 36"><path d="M18.047,9.258a8.665,8.665,0,0,0-7.124,13.58l-.873,3.192,3.273-.86a8.659,8.659,0,0,0,13.37-7.255A8.646,8.646,0,0,0,18.047,9.258Zm5.088,12.366A2.676,2.676,0,0,1,21.38,22.86a3.557,3.557,0,0,1-1.638-.1,15.1,15.1,0,0,1-1.482-.547,11.6,11.6,0,0,1-4.442-3.926,5.055,5.055,0,0,1-1.062-2.689,2.914,2.914,0,0,1,.911-2.169.957.957,0,0,1,.693-.326l.5.009c.159.008.373-.06.585.447s.737,1.8.8,1.93a.48.48,0,0,1,.021.456,1.8,1.8,0,0,1-.259.433l-.39.456c-.13.129-.266.27-.114.531a7.835,7.835,0,0,0,1.446,1.8,7.057,7.057,0,0,0,2.091,1.29c.26.129.411.108.564-.064s.649-.759.823-1.02.347-.218.585-.131,1.517.715,1.776.846.434.195.5.3a2.134,2.134,0,0,1-.15,1.236ZM18,0A18,18,0,1,0,36,18,18,18,0,0,0,18,0Zm.044,28.32a10.417,10.417,0,0,1-4.977-1.266L7.551,28.5l1.476-5.392a10.405,10.405,0,1,1,9.017,5.213Z" fill="#ece8e1"/></svg>