<svg xmlns="http://www.w3.org/2000/svg" width="36" height="36" viewBox="0 0 36 36"><path d="M14.358,38a1.606,1.606,0,0,0,.946-1.474V32.19a4.241,4.241,0,0,1,.032-.49l-.032.008H12.487a2.8,2.8,0,0,1-2.661-1.445c-.548-1.044-.783-2.81-2.191-3.774-.235-.161-.078-.4.391-.4a4.291,4.291,0,0,1,2.113,1.606A3.293,3.293,0,0,0,12.8,29.3c1.946,0,2.99-.1,3.617-.446a3.727,3.727,0,0,1,2.8-1.963v-.02c-4.436-.146-7.27-1.659-8.589-3.995a46.066,46.066,0,0,0-6.791.568q-.068-.394-.118-.792a46.762,46.762,0,0,1,6.531-.573,6.67,6.67,0,0,1-.228-.682,49.3,49.3,0,0,0-6.407.078c-.016-.267-.037-.532-.04-.8a49.981,49.981,0,0,1,6.275-.089,8.094,8.094,0,0,1-.1-1.239,7.031,7.031,0,0,1,1.33-4.015c-.391-1.365-.939-4.256.157-5.3a6.432,6.432,0,0,1,4.3,1.686A11.343,11.343,0,0,1,20,10.832a10.7,10.7,0,0,1,4.383.883,6.432,6.432,0,0,1,4.3-1.686c1.174,1.124.548,4.015.157,5.3A6.269,6.269,0,0,1,30.1,19.343a8.212,8.212,0,0,1-.086,1.131,50.393,50.393,0,0,1,6.421.082c0,.271-.026.535-.04.8a49.425,49.425,0,0,0-6.542-.071,6.764,6.764,0,0,1-.254.787,47.441,47.441,0,0,1,6.69.553q-.05.4-.118.792a46.515,46.515,0,0,0-6.949-.548c-1.3,2.311-4.085,3.818-8.434,3.994v.025c2.035,0,3.913,3.131,3.913,5.3v4.336A1.606,1.606,0,0,0,25.642,38,18.458,18.458,0,0,0,38,20.467,18.259,18.259,0,0,0,20,2,18.259,18.259,0,0,0,2,20.467,18.458,18.458,0,0,0,14.358,38Z" transform="translate(-2 -2)" fill="#ece8e1"/></svg>