<svg xmlns="http://www.w3.org/2000/svg" width="30" height="30" viewBox="0 0 30 30"><path d="M32.1,4H5.906A1.906,1.906,0,0,0,4,5.906V32.094A1.906,1.906,0,0,0,5.906,34H32.094A1.906,1.906,0,0,0,34,32.1V5.906A1.906,1.906,0,0,0,32.1,4ZM20.429,26.988c0,2.854-1.674,4.155-4.118,4.155a5.015,5.015,0,0,1-4.453-2.857L14.1,26.927a2.339,2.339,0,0,0,2.04,1.359c.907,0,1.429-.354,1.429-1.733V17.571h2.857Zm6.2,4.155a4.976,4.976,0,0,1-4.768-2.857L24,26.857c.583.954,1.219,1.867,2.564,1.867,1.13,0,1.722-.564,1.722-1.345,0-.932-.614-1.264-1.855-1.808l-.681-.293c-1.967-.837-3.276-1.886-3.276-4.107,0-2.042,1.56-3.6,3.993-3.6a4.028,4.028,0,0,1,3.876,2.182l-2.121,1.364a1.853,1.853,0,0,0-1.755-1.169,1.186,1.186,0,0,0-1.3,1.169c0,.818.5,1.147,1.674,1.655l.681.293c2.319.99,3.624,2,3.624,4.28C31.143,29.8,29.215,31.143,26.626,31.143Z" transform="translate(-4 -4)" fill="#ece8e1"/></svg>