<?xml version="1.0" encoding="UTF-8"?>
<!DOCTYPE svg PUBLIC "-//W3C//DTD SVG 1.1//EN" "http://www.w3.org/Graphics/SVG/1.1/DTD/svg11.dtd">
<svg xmlns="http://www.w3.org/2000/svg" version="1.1" width="49px" height="42px" style="shape-rendering:geometricPrecision; text-rendering:geometricPrecision; image-rendering:optimizeQuality; fill-rule:evenodd; clip-rule:evenodd" xmlns:xlink="http://www.w3.org/1999/xlink">
<g><path style="opacity:1" fill="#dddad5" d="M 6.5,-0.5 C 11.5,-0.5 16.5,-0.5 21.5,-0.5C 18.7601,1.05299 16.0934,2.88632 13.5,5C 12.7476,5.67076 12.4142,6.5041 12.5,7.5C 10.8333,7.5 9.16667,7.5 7.5,7.5C 4.83333,7.5 2.16667,7.5 -0.5,7.5C -0.5,7.16667 -0.5,6.83333 -0.5,6.5C 1.83333,6.5 4.16667,6.5 6.5,6.5C 6.5,4.16667 6.5,1.83333 6.5,-0.5 Z"/></g>
<g><path style="opacity:1" fill="#acaaa5" d="M 21.5,-0.5 C 24.1667,-0.5 26.8333,-0.5 29.5,-0.5C 26.6717,1.47011 23.6717,3.30345 20.5,5C 19.4019,5.76971 19.4019,6.60305 20.5,7.5C 17.8333,7.5 15.1667,7.5 12.5,7.5C 12.4142,6.5041 12.7476,5.67076 13.5,5C 16.0934,2.88632 18.7601,1.05299 21.5,-0.5 Z"/></g>
<g><path style="opacity:1" fill="#8c8a87" d="M 29.5,-0.5 C 32.8333,-0.5 36.1667,-0.5 39.5,-0.5C 39.8214,5.02621 39.4881,10.3595 38.5,15.5C 38.5,12.5 38.5,9.5 38.5,6.5C 38.762,5.02218 38.4287,3.68884 37.5,2.5C 36.0878,3.80638 34.4211,4.63971 32.5,5C 31.5939,6.69946 31.2606,8.5328 31.5,10.5C 31.5,12.1667 31.5,13.8333 31.5,15.5C 30.5269,13.0521 30.1936,10.3854 30.5,7.5C 27.1667,7.5 23.8333,7.5 20.5,7.5C 19.4019,6.60305 19.4019,5.76971 20.5,5C 23.6717,3.30345 26.6717,1.47011 29.5,-0.5 Z"/></g>
<g><path style="opacity:1" fill="#5e5d5a" d="M 38.5,6.5 C 35.7052,7.06299 33.3718,8.39632 31.5,10.5C 31.2606,8.5328 31.5939,6.69946 32.5,5C 34.4211,4.63971 36.0878,3.80638 37.5,2.5C 38.4287,3.68884 38.762,5.02218 38.5,6.5 Z"/></g>
<g><path style="opacity:1" fill="#3b3b39" d="M 38.5,6.5 C 38.5,9.5 38.5,12.5 38.5,15.5C 36.1667,15.5 33.8333,15.5 31.5,15.5C 31.5,13.8333 31.5,12.1667 31.5,10.5C 33.3718,8.39632 35.7052,7.06299 38.5,6.5 Z"/></g>
<g><path style="opacity:0.729" fill="#ee808b" d="M 48.5,17.5 C 48.5,17.8333 48.5,18.1667 48.5,18.5C 43.5,18.5 38.5,18.5 33.5,18.5C 33.8205,23.6946 33.4872,28.6946 32.5,33.5C 32.5,28.1667 32.5,22.8333 32.5,17.5C 37.8333,17.5 43.1667,17.5 48.5,17.5 Z"/></g>
<g><path style="opacity:1" fill="#e74554" d="M 48.5,18.5 C 48.5,20.8333 48.5,23.1667 48.5,25.5C 45.8333,25.5 43.1667,25.5 40.5,25.5C 40.5,30.8333 40.5,36.1667 40.5,41.5C 35.1667,41.5 29.8333,41.5 24.5,41.5C 24.5,38.8333 24.5,36.1667 24.5,33.5C 27.1667,33.5 29.8333,33.5 32.5,33.5C 33.4872,28.6946 33.8205,23.6946 33.5,18.5C 38.5,18.5 43.5,18.5 48.5,18.5 Z"/></g>
<g><path style="opacity:1" fill="#9d9b96" d="M -0.5,7.5 C 2.16667,7.5 4.83333,7.5 7.5,7.5C 7.5,10.1667 7.5,12.8333 7.5,15.5C 6.71003,14.3915 6.21003,13.0581 6,11.5C 4.89762,15.4159 4.23095,19.4159 4,23.5C 2.78795,27.1182 1.28795,30.4515 -0.5,33.5C -0.5,24.8333 -0.5,16.1667 -0.5,7.5 Z"/></g>
<g><path style="opacity:1" fill="#918f8c" d="M 7.5,15.5 C 7.5,20.5 7.5,25.5 7.5,30.5C 13.0262,30.1786 18.3595,30.5119 23.5,31.5C 20.5,31.5 17.5,31.5 14.5,31.5C 7.95413,29.6708 4.6208,32.0041 4.5,38.5C 7.5,38.5 10.5,38.5 13.5,38.5C 16.8333,38.5 20.1667,38.5 23.5,38.5C 15.6841,39.4924 7.68413,39.8257 -0.5,39.5C -0.5,37.5 -0.5,35.5 -0.5,33.5C 1.28795,30.4515 2.78795,27.1182 4,23.5C 4.23095,19.4159 4.89762,15.4159 6,11.5C 6.21003,13.0581 6.71003,14.3915 7.5,15.5 Z"/></g>
<g><path style="opacity:0.173" fill="#f9ced3" d="M 48.5,25.5 C 48.5,25.8333 48.5,26.1667 48.5,26.5C 46.1667,26.5 43.8333,26.5 41.5,26.5C 41.5,31.5 41.5,36.5 41.5,41.5C 41.1667,41.5 40.8333,41.5 40.5,41.5C 40.5,36.1667 40.5,30.8333 40.5,25.5C 43.1667,25.5 45.8333,25.5 48.5,25.5 Z"/></g>
<g><path style="opacity:1" fill="#31302f" d="M 14.5,31.5 C 17.5,31.5 20.5,31.5 23.5,31.5C 23.5,33.8333 23.5,36.1667 23.5,38.5C 20.1667,38.5 16.8333,38.5 13.5,38.5C 13.6741,36.139 14.0074,33.8056 14.5,31.5 Z"/></g>
<g><path style="opacity:1" fill="#5c5a58" d="M 14.5,31.5 C 14.0074,33.8056 13.6741,36.139 13.5,38.5C 10.5,38.5 7.5,38.5 4.5,38.5C 4.6208,32.0041 7.95413,29.6708 14.5,31.5 Z"/></g>
</svg>
