<svg xmlns="http://www.w3.org/2000/svg" width="34.943" height="20.969" viewBox="0 0 34.943 20.969"><g transform="translate(-8.627 -19.516)"><path d="M16.03,26.506q1.746-6.99,8.736-6.99c6.99,0,7.862,5.24,11.356,6.115q3.5.875,6.115-2.62Q40.491,30,33.5,30c-6.99,0-7.862-5.24-11.356-6.115q-3.495-.875-6.115,2.62ZM7.294,36.99Q9.043,30,16.03,30c6.99,0,7.862,5.24,11.356,6.115q3.495.875,6.115-2.62-1.746,6.99-8.736,6.99c-6.99,0-7.862-5.24-11.356-6.115Q9.914,33.5,7.294,36.99Z" transform="translate(1.333)" fill="#ece8e1" fill-rule="evenodd"/></g></svg>